Coordinates
version=1
nRows=10
nColumns=40
inDegrees=yes

Units are S.I. units (second, meters, Newtons, ...)
If the header above contains a line with 'inDegrees', this indicates whether rotational values are in degrees (yes) or radians (no).

endheader
time	pelvis_tilt	pelvis_list	pelvis_rotation	pelvis_tx	pelvis_ty	pelvis_tz	hip_flexion_r	hip_adduction_r	hip_rotation_r	knee_angle_r	knee_angle_r_beta	ankle_angle_r	subtalar_angle_r	mtp_angle_r	hip_flexion_l	hip_adduction_l	hip_rotation_l	knee_angle_l	knee_angle_l_beta	ankle_angle_l	subtalar_angle_l	mtp_angle_l	lumbar_extension	lumbar_bending	lumbar_rotation	arm_flex_r	arm_add_r	arm_rot_r	elbow_flex_r	pro_sup_r	wrist_flex_r	wrist_dev_r	arm_flex_l	arm_add_l	arm_rot_l	elbow_flex_l	pro_sup_l	wrist_flex_l	wrist_dev_l
     19.27499999999999857891	     13.10099055709811644022	     -7.87080167105776329350	    172.48595705324612481490	      0.26632651947816166071	      0.93262846102072793908	     -0.59149673172474126481	     37.40998369364267972514	     -8.84203689911236878629	      1.72521054371062421140	     27.73977770392336950067	      0.48415045470477557910	      4.02983994462891725874	      0.00000000000000000000	      0.00000000000000000000	     31.98588732724513761241	      0.93345750708654484651	    -14.84189660668800314625	     24.63952557127332454456	      0.43004084734805625434	      6.27336200920346520604	      0.00000000000000000000	      0.00000000000000000000	    -15.70986917392390580517	     -7.57350034538044702970	      0.92428556359058788860	     21.52719909748197935073	    -16.32402363746654216925	     49.79428637914818267518	     13.77529068175792836826	      7.94106012915252090778	      0.00000000000000000000	      0.00000000000000000000	     27.78216174857946185739	    -19.30243040793195063998	     48.17390755476209562858	     19.03770506001473350466	     87.38379747190606394724	      0.00000000000000000000	      0.00000000000000000000
     19.28000000000000113687	     12.93457620914518813038	     -7.85739198715889486380	    172.47563223854109537569	      0.26572728333198741835	      0.93309004767963443783	     -0.59145178971662215606	     37.19042452092928385810	     -8.86851905234122384059	      1.77506701178857029255	     27.76518463097528410799	      0.48459388923464546961	      3.99870478922782357500	      0.00000000000000000000	      0.00000000000000000000	     31.78090154757671825791	      0.96744258144074279926	    -14.77654627230446671149	     24.66985886441911901557	      0.43057026318642299678	      6.24500979064654337947	      0.00000000000000000000	      0.00000000000000000000	    -15.27015687402323607103	     -7.55376995799935535558	      0.94807127732774032491	     21.23571036313885684876	    -16.33349601735517353518	     49.78200146276495985376	     13.75055694055910926465	      7.94092783289045023309	      0.00000000000000000000	      0.00000000000000000000	     27.47086161519379388096	    -19.32588708210205297178	     48.19831752297994853507	     19.00978412885497803586	     87.39652072931828286073	      0.00000000000000000000	      0.00000000000000000000
     19.28500000000000014211	     12.76369209871053733707	     -7.84252003240950212870	    172.45724152440533316621	      0.26507931178035232245	      0.93355043843933405157	     -0.59157513438550490825	     36.95429269689891782491	     -8.87901298135041905368	      1.78310096117043470620	     27.76694969273734159287	      0.48462469537389440966	      3.98829206615092823895	      0.00000000000000000000	      0.00000000000000000000	     31.54846978948724967040	      0.99439097595754211145	    -14.71885350554342331009	     24.67174798448081673996	      0.43060323455146515270	      6.24558276233049802784	      0.00000000000000000000	      0.00000000000000000000	    -14.82501862403235470822	     -7.55098924253489212077	      0.99754184505579857056	     20.89357213832563076039	    -16.32750097287953749969	     49.74496038186498481082	     13.77667496671295310762	      7.94812644759912867443	      0.00000000000000000000	      0.00000000000000000000	     27.15244155843766549197	    -19.36899439453239324394	     48.20636966670598155815	     19.03819297485026851291	     87.41012974226553922108	      0.00000000000000000000	      0.00000000000000000000
     19.28999999999999914735	     11.70502478225032660930	     -7.77781886580738479608	    172.31679470484621674586	      0.26353242401123944116	      0.93592181768829652011	     -0.59199718805256063003	     35.50133565233324617338	     -9.00415907538668491839	      1.54591322137996001196	     27.36070661385560143231	      0.47753441608396901552	      4.10994799147654710225	      0.00000000000000000000	      0.00000000000000000000	     29.98184704203576700365	      1.16547050653374539841	    -14.77747111408501012875	     23.98179537539094852150	      0.41856128984012158645	      6.21085705393204445812	      0.00000000000000000000	      0.00000000000000000000	    -15.42210827008061002630	     -7.62640133968271705101	      1.08835894862981152897	     20.57221091696407455629	    -16.33699414291268325883	     48.74587238712280168329	     14.03367888034782318130	      8.23521413661504553261	      0.00000000000000000000	      0.00000000000000000000	     26.91185981005616767447	    -19.50406110834381578911	     47.98726012399809093267	     19.40838733015642603164	     87.40752627207710645507	      0.00000000000000000000	      0.00000000000000000000
     19.29500000000000170530	     11.51744896660369477104	     -7.75402303013568161560	    172.29941142174408241772	      0.26289795786735070671	      0.93626956815918849220	     -0.59204829256600521870	     35.27096486465937630328	     -9.01299158460782656732	      1.61397266807834727231	     27.40392631492490238543	      0.47828874216935607366	      4.09207720801204022365	      0.00000000000000000000	      0.00000000000000000000	     29.75552624903853171645	      1.19148711107944405008	    -14.67925631477787185020	     24.02760817840962914715	      0.41936087409236516566	      6.20121845992524356461	      0.00000000000000000000	      0.00000000000000000000	    -14.99389659196170399014	     -7.60592484111442246331	      1.12762646855434733872	     20.27813727971479451639	    -16.34394084086326515148	     48.72651718385570518421	     14.01745382988579891048	      8.23790988725109940560	      0.00000000000000000000	      0.00000000000000000000	     26.61491551016558432252	    -19.53678797495624053226	     48.01550381459514227345	     19.39801394500205233840	     87.42027250130831816932	      0.00000000000000000000	      0.00000000000000000000
     19.30000000000000071054	     11.10096283599802013953	     -7.71988071065016878691	    172.28684931192967155766	      0.26200527792712574593	      0.93704214929677509538	     -0.59208438742509827968	     34.75107614522698895598	     -9.08146461630122381337	      1.54395287868075525850	     27.41007252374627967129	      0.47839601374980422754	      4.27402125485342132549	      0.00000000000000000000	      0.00000000000000000000	     29.19721287254166952607	      1.26142458717693051184	    -14.64904773063223686336	     23.92803545479375770810	      0.41762300222008985617	      6.33533840761657085494	      0.00000000000000000000	      0.00000000000000000000	    -14.83698340629693923631	     -7.59883693434914775366	      1.17178371697844574406	     19.87472436147679033525	    -16.49120750459410089661	     48.42377119487107250961	     14.36511068205952490473	      8.34157474344059401972	      0.00000000000000000000	      0.00000000000000000000	     26.28091246280090231835	    -19.70203451856567511413	     47.96745095314536655451	     19.75966720656439434833	     87.42525492967065758876	      0.00000000000000000000	      0.00000000000000000000
     19.30499999999999971578	     10.88730936890369704884	     -7.69386091419036954875	    172.28190068427210235313	      0.26139510171643065561	      0.93741276190469313701	     -0.59224896210489508253	     34.50455829086649828241	     -9.08442736363286940104	      1.60741260314963518852	     27.47081214449616481943	      0.47945612011830235355	      4.25495290762695699271	      0.00000000000000000000	      0.00000000000000000000	     28.94631130425168663578	      1.28510626862280963323	    -14.55752416435377050163	     23.97201720925877310719	      0.41839062864630810479	      6.30877674435679125509	      0.00000000000000000000	      0.00000000000000000000	    -14.43306418036928384652	     -7.57322159501237557322	      1.22079350555981980264	     19.57559696492287315550	    -16.47809214938305188980	     48.39062566149021193951	     14.34420477213128819471	      8.34425652939431827804	      0.00000000000000000000	      0.00000000000000000000	     25.99619787082591315652	    -19.71347416715098077589	     47.99324404603936500280	     19.74229568725705874499	     87.43610456928287533174	      0.00000000000000000000	      0.00000000000000000000
     19.30999999999999872102	     10.66294910894690417535	     -7.67089124491457141630	    172.28962352220270304315	      0.26084488300961355955	      0.93776977141489681333	     -0.59230940478377680503	     34.25074602953985447584	     -9.10500949180466534472	      1.65469368113361592343	     27.53475318882557942857	      0.48057210186901427873	      4.25626752025915955358	      0.00000000000000000000	      0.00000000000000000000	     28.69462897972069725938	      1.31269409277669479863	    -14.49497438746493571671	     24.01120798176982873429	      0.41907463666302613436	      6.29927119004378788247	      0.00000000000000000000	      0.00000000000000000000	    -14.04169582477623912098	     -7.53917121461822237194	      1.27687299874961457391	     19.25880668639532444786	    -16.49347770616441621883	     48.33470380799285237572	     14.34258946670026801939	      8.34790336132089727528	      0.00000000000000000000	      0.00000000000000000000	     25.72679869573326882914	    -19.74364942715559934072	     48.00311498379428343242	     19.76425482904790698058	     87.44644407029440458246	      0.00000000000000000000	      0.00000000000000000000
     19.31500000000000127898	     10.42637804549494795481	     -7.64304390582720394320	    172.29033777424137952039	      0.26023417359598277621	      0.93816528239848195891	     -0.59226920405220140342	     33.98540044184402830751	     -9.13660105901830377206	      1.71460370211922463746	     27.60810795385889448994	      0.48185238404087243902	      4.26944842275535130227	      0.00000000000000000000	      0.00000000000000000000	     28.41235456231268940996	      1.34281353410269521653	    -14.41578575884908097748	     24.04790071544578822227	      0.41971504567722900392	      6.30346974357733724759	      0.00000000000000000000	      0.00000000000000000000	    -13.65523521568209019961	     -7.48232980177814965828	      1.34671246108916098372	     18.94058380960021636952	    -16.53013135259510946184	     48.25204406148372271446	     14.35921990364418121544	      8.35374178916745080414	      0.00000000000000000000	      0.00000000000000000000	     25.42132181611619401451	    -19.76960048707669770351	     48.01092191451835589078	     19.81672534949630559709	     87.45889614607763462573	      0.00000000000000000000	      0.00000000000000000000
     19.32000000000000028422	      8.07734504274533549051	     -7.39647505383101400156	    172.21064747038326459005	      0.25755231016253710141	      0.94260965914450967063	     -0.59262211625268623738	     31.02098553990119711443	     -9.47678537420037336858	      0.78176615986228437105	     27.28953360148892670622	      0.47629221267960791808	      4.66008560666703974817	      0.00000000000000000000	      0.00000000000000000000	     25.23576110088334445436	      1.61614051476291398224	    -14.62585034831356622931	     23.10312940243297674670	      0.40322567558676547517	      6.34073140577757232705	      0.00000000000000000000	      0.00000000000000000000	    -15.68886904036996021716	     -7.46908966002371776938	      1.41333950541690178682	     18.68530921774326003515	    -16.43264818906744295646	     45.92166246887691016809	     14.53785266942787934852	      8.65250558253018020594	      0.00000000000000000000	      0.00000000000000000000	     25.45938964229895162816	    -19.83902363459053930228	     48.08149674775514625935	     20.28198429620061205014	     87.46120128368501411842	      0.00000000000000000000	      0.00000000000000000000
